<svg width="746" height="259" viewBox="0 0 746 259" fill="none" xmlns="http://www.w3.org/2000/svg">
<path d="M209.22 114.744C209.22 134.594 193.07 150.744 173.21 150.744C159.53 150.744 148.3 142.184 140.34 133.324L147.69 121.324C152.94 127.844 162.47 137.364 173.21 137.364C185.68 137.364 195.84 127.214 195.84 114.734C195.84 102.254 185.68 92.0937 173.21 92.0937C142.78 92.0937 136.58 150.734 96.9602 150.734C77.1402 150.734 60.9902 134.584 60.9902 114.734C60.9902 94.8836 77.1402 78.7236 96.9602 78.7236C111.71 78.7236 122.34 87.6237 129.74 96.2437L122.34 108.384C113.68 97.1137 105.79 92.1036 96.9602 92.1036C84.4902 92.1036 74.3602 102.264 74.3602 114.744C74.3602 127.224 84.4902 137.374 96.9602 137.374C127.4 137.374 133.59 78.7336 173.21 78.7336C193.07 78.7336 209.22 94.8837 209.22 114.744Z" fill="url(#paint0_linear_202_13)"/>
<path d="M55.89 150.744H26.52C22.82 150.744 19.38 150.044 16.18 148.644C12.98 147.244 10.19 145.344 7.79001 142.954C5.39001 140.554 3.49001 137.734 2.10001 134.484C0.700006 131.244 0 127.764 0 124.074V60.5439H16.63V124.074C16.63 126.874 17.6 129.224 19.55 131.114C21.5 133.014 23.82 133.964 26.52 133.964H55.89V150.744Z" fill="#4169E1"/>
<path d="M291.891 112.384C291.891 117.684 290.891 122.644 288.891 127.294C286.891 131.944 284.171 136.014 280.721 139.504C277.271 143.004 273.231 145.744 268.581 147.744C263.941 149.744 258.971 150.744 253.671 150.744C249.571 150.744 245.781 149.994 242.281 148.494C238.781 146.994 235.741 145.044 233.141 142.654V174.274H215.311V111.794C215.411 106.604 216.481 101.704 218.531 97.1136C220.581 92.5236 223.331 88.5236 226.771 85.1236C230.221 81.7336 234.261 79.0536 238.911 77.1036C243.561 75.1536 248.471 74.1836 253.671 74.1836C258.871 74.1836 263.931 75.1836 268.581 77.1836C273.231 79.1836 277.271 81.9036 280.721 85.3536C284.171 88.8036 286.891 92.8436 288.891 97.4936C290.891 102.144 291.891 107.104 291.891 112.404V112.384ZM274.061 112.384C274.061 109.584 273.531 106.944 272.491 104.444C271.441 101.944 269.991 99.7736 268.141 97.9236C266.291 96.0736 264.121 94.6236 261.621 93.5736C259.121 92.5236 256.471 92.0036 253.681 92.0036C250.891 92.0036 248.231 92.5336 245.741 93.5736C243.241 94.6236 241.071 96.0736 239.221 97.9236C237.371 99.7736 235.901 101.944 234.801 104.444C233.701 106.944 233.151 109.594 233.151 112.384C233.151 115.174 233.701 117.834 234.801 120.324C235.901 122.824 237.371 125.024 239.221 126.914C241.071 128.814 243.241 130.284 245.741 131.334C248.241 132.384 250.881 132.904 253.681 132.904C256.481 132.904 259.121 132.384 261.621 131.334C264.121 130.284 266.291 128.814 268.141 126.914C269.991 125.014 271.441 122.824 272.491 120.324C273.541 117.824 274.061 115.184 274.061 112.384Z" fill="#4169E1"/>
<path d="M459.15 97.4836C457.16 92.8236 454.44 88.7836 450.99 85.3436C447.54 81.8936 443.49 79.1736 438.85 77.1736C435.44 75.7136 431.85 74.7736 428.08 74.3836H428.06C428.01 74.3736 427.97 74.3736 427.92 74.3736C427.75 74.3536 427.59 74.3336 427.42 74.3236H427.39C427.33 74.3236 427.27 74.3236 427.2 74.3236C426.13 74.2236 425.04 74.1836 423.94 74.1836C418.74 74.1836 413.83 75.1536 409.19 77.1136C407.99 77.6136 406.84 78.1636 405.71 78.7636C405.7 78.7636 405.7 78.7736 405.7 78.7736C405.67 78.7836 405.63 78.8136 405.59 78.8336C405.46 78.8936 405.32 78.9736 405.19 79.0536L405.17 79.0736C405.12 79.0736 405.07 79.1036 405.03 79.1536C402.08 80.7936 399.42 82.7936 397.05 85.1236C393.6 88.5236 390.85 92.5136 388.81 97.1136C386.75 101.704 385.68 106.604 385.58 111.794V174.274H403.41V142.664C406.01 145.054 409.05 147.014 412.55 148.504C416.05 150.004 419.85 150.754 423.94 150.754C429.23 150.754 434.21 149.764 438.85 147.754C439.82 147.334 440.76 146.894 441.67 146.394C441.69 146.394 441.72 146.384 441.73 146.364C445.19 144.554 448.28 142.274 450.99 139.514C453.14 137.334 455 134.944 456.58 132.324L457.24 131.184C457.94 129.944 458.58 128.644 459.15 127.304C461.15 122.664 462.16 117.694 462.16 112.404C462.16 107.114 461.15 102.134 459.15 97.4936V97.4836ZM442.75 120.324C441.69 122.824 440.25 125.024 438.41 126.924C436.56 128.814 434.38 130.294 431.88 131.344C429.38 132.384 426.73 132.914 423.94 132.914C421.15 132.914 418.5 132.384 416 131.344C413.5 130.294 411.33 128.814 409.48 126.924C407.64 125.024 406.16 122.824 405.06 120.324C403.97 117.834 403.41 115.184 403.41 112.394C403.41 109.604 403.97 106.934 405.06 104.454C406.16 101.954 407.64 99.7736 409.48 97.9236C411.33 96.0736 413.5 94.6236 416 93.5736C418.5 92.5336 421.14 92.0036 423.94 92.0036C426.74 92.0036 429.38 92.5336 431.88 93.5736C434.38 94.6236 436.56 96.0736 438.41 97.9236C440.25 99.7736 441.69 101.954 442.75 104.454C443.8 106.934 444.32 109.584 444.32 112.394C444.32 115.204 443.8 117.834 442.75 120.324Z" fill="#4169E1"/>
<path d="M541.07 97.4739C539.08 92.8239 536.35 88.7839 532.91 85.3339C529.46 81.8839 525.41 79.1639 520.77 77.1739C516.13 75.1839 511.15 74.1739 505.86 74.1739C501.76 74.1739 497.97 74.9039 494.47 76.3539C490.97 77.8039 487.93 79.7739 485.33 82.2739V50.5039H467.5V150.744H485.33V112.384C485.33 109.574 485.85 106.934 486.91 104.444C487.96 101.944 489.43 99.7639 491.33 97.9139C493.23 96.0639 495.42 94.6139 497.92 93.5639C500.42 92.5139 503.07 91.9839 505.86 91.9839C508.65 91.9839 511.3 92.5139 513.8 93.5639C516.3 94.6139 518.47 96.0639 520.33 97.9139C522.18 99.7639 523.62 101.944 524.66 104.444C525.72 106.934 526.24 109.574 526.24 112.384V150.744H544.07V112.384C544.07 107.094 543.07 102.114 541.08 97.4739H541.07Z" fill="#4169E1"/>
<path d="M625.98 111.784C625.88 106.584 624.75 101.684 622.61 97.0941C620.46 92.5041 617.61 88.5141 614.06 85.1141C610.51 81.7141 606.48 79.0441 601.93 77.0941C597.37 75.1341 592.66 74.1641 587.77 74.1641C582.46 74.1641 577.5 75.1741 572.86 77.1641C568.22 79.1541 564.14 81.8841 560.65 85.3241C557.15 88.7741 554.41 92.8141 552.41 97.4641C550.4 102.104 549.41 107.084 549.41 112.374C549.41 117.664 550.41 122.634 552.41 127.274C554.4 131.924 557.15 135.994 560.65 139.484C564.15 142.984 568.22 145.724 572.86 147.724C577.5 149.734 582.46 150.724 587.77 150.724C592.05 150.724 596.16 150.044 600.06 148.704C603.95 147.354 607.5 145.474 610.7 143.074C613.89 140.684 616.66 137.824 619.01 134.544C621.35 131.244 623.13 127.644 624.33 123.744H603.8C602.2 126.444 600 128.644 597.2 130.344C594.4 132.044 591.25 132.894 587.77 132.894C583.07 132.894 578.98 131.464 575.48 128.624C571.98 125.784 569.73 122.114 568.73 117.604H625.97V111.764L625.98 111.784ZM568.29 106.684C569.48 102.484 571.86 98.9841 575.41 96.1941C578.96 93.3941 583.07 91.9941 587.77 91.9941C592.47 91.9941 596.57 93.3941 600.13 96.1941C603.66 98.9941 606.04 102.484 607.25 106.684H568.29Z" fill="#4169E1"/>
<path d="M658.281 76.3443C654.781 77.7943 651.741 79.7643 649.141 82.2643V74.1643H631.311V150.744H649.141V112.384C649.141 109.574 649.671 106.934 650.721 104.444C651.771 101.944 653.21 99.7643 655.07 97.9143C656.92 96.0643 659.081 94.6143 661.581 93.5643C664.081 92.5143 666.731 91.9843 669.521 91.9843V74.1543C665.521 74.1543 661.771 74.8843 658.281 76.3343V76.3443Z" fill="#4169E1"/>
<path d="M745.441 111.784C745.331 106.584 744.211 101.684 742.071 97.0941C739.921 92.5041 737.071 88.5141 733.521 85.1141C729.971 81.7141 725.921 79.0441 721.381 77.0941C716.841 75.1341 712.121 74.1641 707.221 74.1641C701.931 74.1641 696.961 75.1741 692.311 77.1641C687.671 79.1541 683.601 81.8841 680.111 85.3241C676.611 88.7741 673.871 92.8141 671.861 97.4641C669.871 102.104 668.871 107.084 668.871 112.374C668.871 117.664 669.871 122.634 671.861 127.274C673.871 131.924 676.611 135.994 680.111 139.484C683.611 142.984 687.671 145.724 692.311 147.724C696.961 149.734 701.931 150.724 707.221 150.724C711.521 150.724 715.621 150.044 719.511 148.704C723.411 147.354 726.961 145.474 730.151 143.074C733.351 140.684 736.121 137.824 738.471 134.544C740.811 131.244 742.581 127.644 743.791 123.744H723.261C721.661 126.444 719.461 128.644 716.661 130.344C713.861 132.044 710.711 132.894 707.221 132.894C702.531 132.894 698.431 131.464 694.941 128.624C691.431 125.784 689.191 122.114 688.191 117.604H745.431V111.764L745.441 111.784ZM687.741 106.684C688.951 102.484 691.311 98.9841 694.861 96.1941C698.411 93.3941 702.531 91.9941 707.221 91.9941C711.911 91.9941 716.041 93.3941 719.581 96.1941C723.131 98.9941 725.501 102.484 726.701 106.684H687.741Z" fill="#4169E1"/>
<path d="M382.17 123.314C382.17 136.434 373.54 150.444 349.3 150.444H333.59L326.23 134.214L326.06 133.844H349.86C358.09 133.844 363.19 128.374 363.19 123.314C363.19 115.834 355.33 110.134 347.01 104.104C338.1 97.6342 327.99 90.3042 325.85 79.1942C325.66 78.4142 325.66 77.4842 325.66 76.4042C325.66 66.0642 332.56 48.5742 358.4 48.5742H378.95V65.0342H358.4C352 65.0342 344.37 66.7142 344.37 74.7242C344.37 75.5442 344.57 76.5542 344.81 77.7242L344.89 78.1242C346.01 82.8442 352.32 87.2542 359.01 91.9242C369.17 99.0242 380.69 107.074 382.02 120.544C382.17 121.514 382.17 122.424 382.17 123.314Z" fill="#4169E1"/>
<path d="M333.591 150.444H333.631C334.551 152.304 335.471 154.124 336.391 155.894C336.741 156.574 337.081 157.234 337.431 157.904C339.671 161.954 342.111 166.184 344.731 170.494C346.531 173.494 348.431 176.544 350.411 179.604C353.391 184.204 356.541 188.834 359.871 193.404C379.231 220.044 404.361 244.774 432.761 249.504C444.941 251.154 456.991 244.354 462.601 232.794C465.341 226.904 467.281 220.424 468.391 213.814C470.101 202.174 469.981 190.274 468.511 178.414C467.721 171.984 466.521 165.574 465.001 159.214C463.191 151.574 459.201 139.724 456.581 132.314L457.241 131.174C457.241 131.174 458.631 134.714 458.641 134.744C461.431 142.114 464.021 149.774 466.231 157.554C468.191 164.464 469.861 171.464 471.111 178.414C475.031 200.064 474.901 221.184 467.111 237.494C462.971 246.014 456.521 252.854 447.861 256.214C432.551 262.064 415.761 257.434 401.861 249.734L397.281 247.224C395.691 246.224 392.181 244.064 390.621 243.054C389.361 242.184 385.451 239.364 384.201 238.504L380.071 235.254C377.771 233.494 374.301 230.284 372.101 228.404C370.821 227.124 367.661 224.194 366.401 222.924C365.281 221.784 362.111 218.374 360.961 217.204C342.221 196.444 326.831 172.274 315.321 146.374C301.191 114.244 291.331 77.2137 296.901 41.6637C303.361 3.4537 331.621 -10.2763 363.791 8.03369C386.081 20.8137 404.041 39.8237 419.181 61.1337C422.181 65.3437 425.071 69.6537 427.851 74.0337C427.931 74.1437 428.001 74.2637 428.081 74.3837H428.061C428.011 74.3737 427.971 74.3737 427.921 74.3737C427.751 74.3537 427.591 74.3337 427.421 74.3237H427.391C427.331 74.3237 427.271 74.3237 427.201 74.3237C424.351 70.0137 421.361 65.7537 418.241 61.5937C402.171 40.1737 382.591 21.2537 359.301 11.2337C353.321 8.8337 347.031 7.23371 340.821 6.67371C328.491 5.74371 316.781 13.1137 311.851 24.8937C302.131 50.1837 307.071 81.4637 316.751 110.244C318.541 115.534 320.501 120.744 322.541 125.814C323.741 128.794 324.801 130.984 326.061 133.854" fill="url(#paint1_linear_202_13)"/>
<defs>
<linearGradient id="paint0_linear_202_13" x1="60.9902" y1="114.734" x2="209.22" y2="114.734" gradientUnits="userSpaceOnUse">
<stop offset="0.43" stop-color="#7F50D6"/>
<stop offset="0.71" stop-color="#7D50D6"/>
<stop offset="0.82" stop-color="#7653D7"/>
<stop offset="0.89" stop-color="#6A58D9"/>
<stop offset="0.94" stop-color="#595FDC"/>
<stop offset="0.99" stop-color="#4467E0"/>
<stop offset="1" stop-color="#4169E1"/>
</linearGradient>
<linearGradient id="paint1_linear_202_13" x1="295.321" y1="129.424" x2="473.641" y2="129.424" gradientUnits="userSpaceOnUse">
<stop offset="0.5" stop-color="#7F50D6"/>
<stop offset="0.67" stop-color="#7C51D6"/>
<stop offset="0.78" stop-color="#7354D8"/>
<stop offset="0.87" stop-color="#645ADA"/>
<stop offset="0.96" stop-color="#4F62DE"/>
<stop offset="1" stop-color="#4169E1"/>
</linearGradient>
</defs>
</svg>
