<svg width="746" height="259" viewBox="0 0 746 259" fill="none" xmlns="http://www.w3.org/2000/svg">
<path d="M333.591 150.444H333.631C334.551 152.304 335.471 154.124 336.391 155.894C336.741 156.574 337.081 157.234 337.431 157.904C339.671 161.954 342.111 166.184 344.731 170.494C346.531 173.494 348.431 176.544 350.411 179.604C353.391 184.204 356.541 188.834 359.871 193.404C379.231 220.044 404.361 244.774 432.761 249.504C444.941 251.154 456.991 244.354 462.601 232.794C465.341 226.904 467.281 220.424 468.391 213.814C470.101 202.174 469.981 190.274 468.511 178.414C467.721 171.984 466.521 165.574 465.001 159.214C463.191 151.574 459.201 139.724 456.581 132.314L457.241 131.174C457.241 131.174 458.631 134.714 458.641 134.744C461.431 142.114 464.021 149.774 466.231 157.554C468.191 164.464 469.861 171.464 471.111 178.414C475.031 200.064 474.901 221.184 467.111 237.494C462.971 246.014 456.521 252.854 447.861 256.214C432.551 262.064 415.761 257.434 401.861 249.734L397.281 247.224C395.691 246.224 392.181 244.064 390.621 243.054C389.361 242.184 385.451 239.364 384.201 238.504L380.071 235.254C377.771 233.494 374.301 230.284 372.101 228.404C370.821 227.124 367.661 224.194 366.401 222.924C365.281 221.784 362.111 218.374 360.961 217.204C342.221 196.444 326.831 172.274 315.321 146.374C301.191 114.244 291.331 77.2137 296.901 41.6637C303.361 3.4537 331.621 -10.2763 363.791 8.03369C386.081 20.8137 404.041 39.8237 419.181 61.1337C422.181 65.3437 425.071 69.6537 427.851 74.0337C427.931 74.1437 428.001 74.2637 428.081 74.3837H428.061C428.011 74.3737 427.971 74.3737 427.921 74.3737C427.751 74.3537 427.591 74.3337 427.421 74.3237H427.391C427.331 74.3237 427.271 74.3237 427.201 74.3237C424.351 70.0137 421.361 65.7537 418.241 61.5937C402.171 40.1737 382.591 21.2537 359.301 11.2337C353.321 8.8337 347.031 7.23371 340.821 6.67371C328.491 5.74371 316.781 13.1137 311.851 24.8937C302.131 50.1837 307.071 81.4637 316.751 110.244C318.541 115.534 320.501 120.744 322.541 125.814C323.741 128.794 324.801 130.984 326.061 133.854" fill="url(#paint1_linear_202_13)"/>
<defs>
<linearGradient id="paint0_linear_202_13" x1="60.9902" y1="114.734" x2="209.22" y2="114.734" gradientUnits="userSpaceOnUse">
<stop offset="0.43" stop-color="#7F50D6"/>
<stop offset="0.71" stop-color="#7D50D6"/>
<stop offset="0.82" stop-color="#7653D7"/>
<stop offset="0.89" stop-color="#6A58D9"/>
<stop offset="0.94" stop-color="#595FDC"/>
<stop offset="0.99" stop-color="#4467E0"/>
<stop offset="1" stop-color="#4169E1"/>
</linearGradient>
<linearGradient id="paint1_linear_202_13" x1="295.321" y1="129.424" x2="473.641" y2="129.424" gradientUnits="userSpaceOnUse">
<stop offset="0.5" stop-color="#7F50D6"/>
<stop offset="0.67" stop-color="#7C51D6"/>
<stop offset="0.78" stop-color="#7354D8"/>
<stop offset="0.87" stop-color="#645ADA"/>
<stop offset="0.96" stop-color="#4F62DE"/>
<stop offset="1" stop-color="#4169E1"/>
</linearGradient>
</defs>
</svg>
